<mxfile host="app.diagrams.net" modified="2024-03-11T15:29:46.450Z" agent="Mozilla/5.0 (Windows NT 10.0; Win64; x64) AppleWebKit/537.36 (KHTML, like Gecko) Chrome/122.0.0.0 Safari/537.36 Edg/122.0.0.0" etag="LKd-Le80j8OcCmtWziJV" version="24.0.0" type="device">
  <diagram name="Страница — 1" id="NnhCvVEJalvaf3dituHB">
    <mxGraphModel dx="1402" dy="569" grid="0" gridSize="10" guides="1" tooltips="1" connect="1" arrows="1" fold="1" page="0" pageScale="1" pageWidth="827" pageHeight="1169" math="0" shadow="0">
      <root>
        <mxCell id="0" />
        <mxCell id="1" parent="0" />
        <mxCell id="6WRLJWK2D22IKGkuJ0T7-13" value="" style="rounded=0;whiteSpace=wrap;html=1;" vertex="1" parent="1">
          <mxGeometry x="45" y="163" width="650" height="360" as="geometry" />
        </mxCell>
        <mxCell id="6WRLJWK2D22IKGkuJ0T7-14" value="" style="rounded=0;whiteSpace=wrap;html=1;fillColor=#a0522d;fontColor=#ffffff;strokeColor=#6D1F00;" vertex="1" parent="1">
          <mxGeometry x="90" y="151" width="120" height="20" as="geometry" />
        </mxCell>
        <mxCell id="6WRLJWK2D22IKGkuJ0T7-16" value="дверь" style="text;html=1;align=left;verticalAlign=middle;whiteSpace=wrap;rounded=0;" vertex="1" parent="1">
          <mxGeometry x="190" y="100" width="40" height="30" as="geometry" />
        </mxCell>
        <mxCell id="6WRLJWK2D22IKGkuJ0T7-17" value="" style="endArrow=classic;html=1;rounded=0;exitX=0.5;exitY=1;exitDx=0;exitDy=0;" edge="1" parent="1" source="6WRLJWK2D22IKGkuJ0T7-16" target="6WRLJWK2D22IKGkuJ0T7-14">
          <mxGeometry width="50" height="50" relative="1" as="geometry">
            <mxPoint x="230" y="140" as="sourcePoint" />
            <mxPoint x="280" y="90" as="targetPoint" />
          </mxGeometry>
        </mxCell>
        <mxCell id="6WRLJWK2D22IKGkuJ0T7-22" value="" style="rounded=0;whiteSpace=wrap;html=1;fillColor=#647687;fontColor=#ffffff;strokeColor=#314354;rotation=-90;" vertex="1" parent="1">
          <mxGeometry x="-18" y="310" width="120" height="20" as="geometry" />
        </mxCell>
        <mxCell id="6WRLJWK2D22IKGkuJ0T7-23" value="" style="rounded=0;whiteSpace=wrap;html=1;fillColor=#6d8764;fontColor=#ffffff;strokeColor=#3A5431;rotation=-90;" vertex="1" parent="1">
          <mxGeometry x="-3" y="315" width="120" height="10" as="geometry" />
        </mxCell>
        <mxCell id="6WRLJWK2D22IKGkuJ0T7-25" value="штора" style="text;html=1;align=center;verticalAlign=middle;whiteSpace=wrap;rounded=0;" vertex="1" parent="1">
          <mxGeometry x="-18" y="220" width="60" height="30" as="geometry" />
        </mxCell>
        <mxCell id="6WRLJWK2D22IKGkuJ0T7-26" value="окно" style="text;html=1;align=center;verticalAlign=middle;whiteSpace=wrap;rounded=0;" vertex="1" parent="1">
          <mxGeometry x="-78" y="200" width="60" height="30" as="geometry" />
        </mxCell>
        <mxCell id="6WRLJWK2D22IKGkuJ0T7-27" value="" style="endArrow=classic;html=1;rounded=0;entryX=0.843;entryY=0.07;entryDx=0;entryDy=0;entryPerimeter=0;exitX=0.5;exitY=1;exitDx=0;exitDy=0;" edge="1" parent="1" source="6WRLJWK2D22IKGkuJ0T7-26" target="6WRLJWK2D22IKGkuJ0T7-22">
          <mxGeometry width="50" height="50" relative="1" as="geometry">
            <mxPoint x="-50" y="240" as="sourcePoint" />
            <mxPoint y="190" as="targetPoint" />
          </mxGeometry>
        </mxCell>
        <mxCell id="6WRLJWK2D22IKGkuJ0T7-28" value="" style="endArrow=classic;html=1;rounded=0;" edge="1" parent="1">
          <mxGeometry width="50" height="50" relative="1" as="geometry">
            <mxPoint x="20" y="250" as="sourcePoint" />
            <mxPoint x="60" y="300" as="targetPoint" />
          </mxGeometry>
        </mxCell>
        <mxCell id="6WRLJWK2D22IKGkuJ0T7-29" value="" style="sketch=0;pointerEvents=1;shadow=0;dashed=0;html=1;strokeColor=none;fillColor=#505050;labelPosition=center;verticalLabelPosition=bottom;verticalAlign=top;outlineConnect=0;align=center;shape=mxgraph.office.devices.lcd_monitor;" vertex="1" parent="1">
          <mxGeometry x="110" y="460" width="58" height="48" as="geometry" />
        </mxCell>
        <mxCell id="6WRLJWK2D22IKGkuJ0T7-30" value="" style="sketch=0;pointerEvents=1;shadow=0;dashed=0;html=1;strokeColor=none;fillColor=#505050;labelPosition=center;verticalLabelPosition=bottom;verticalAlign=top;outlineConnect=0;align=center;shape=mxgraph.office.devices.lcd_monitor;" vertex="1" parent="1">
          <mxGeometry x="210" y="460" width="58" height="48" as="geometry" />
        </mxCell>
        <mxCell id="6WRLJWK2D22IKGkuJ0T7-31" value="" style="sketch=0;pointerEvents=1;shadow=0;dashed=0;html=1;strokeColor=none;fillColor=#505050;labelPosition=center;verticalLabelPosition=bottom;verticalAlign=top;outlineConnect=0;align=center;shape=mxgraph.office.devices.lcd_monitor;" vertex="1" parent="1">
          <mxGeometry x="310" y="460" width="58" height="48" as="geometry" />
        </mxCell>
        <mxCell id="6WRLJWK2D22IKGkuJ0T7-32" value="" style="sketch=0;pointerEvents=1;shadow=0;dashed=0;html=1;strokeColor=none;fillColor=#505050;labelPosition=center;verticalLabelPosition=bottom;verticalAlign=top;outlineConnect=0;align=center;shape=mxgraph.office.devices.lcd_monitor;" vertex="1" parent="1">
          <mxGeometry x="410" y="460" width="58" height="48" as="geometry" />
        </mxCell>
        <mxCell id="6WRLJWK2D22IKGkuJ0T7-33" value="" style="sketch=0;pointerEvents=1;shadow=0;dashed=0;html=1;strokeColor=none;fillColor=#505050;labelPosition=center;verticalLabelPosition=bottom;verticalAlign=top;outlineConnect=0;align=center;shape=mxgraph.office.devices.lcd_monitor;" vertex="1" parent="1">
          <mxGeometry x="510" y="460" width="58" height="48" as="geometry" />
        </mxCell>
        <mxCell id="6WRLJWK2D22IKGkuJ0T7-34" value="" style="shape=mxgraph.cisco.servers.fileserver;sketch=0;html=1;pointerEvents=1;dashed=0;fillColor=#036897;strokeColor=#ffffff;strokeWidth=2;verticalLabelPosition=bottom;verticalAlign=top;align=center;outlineConnect=0;" vertex="1" parent="1">
          <mxGeometry x="517.5" y="168" width="43" height="62" as="geometry" />
        </mxCell>
        <mxCell id="6WRLJWK2D22IKGkuJ0T7-35" value="" style="sketch=0;pointerEvents=1;shadow=0;dashed=0;html=1;strokeColor=none;fillColor=#505050;labelPosition=center;verticalLabelPosition=bottom;verticalAlign=top;outlineConnect=0;align=center;shape=mxgraph.office.servers.web_server_blue;" vertex="1" parent="1">
          <mxGeometry x="600" y="168" width="48" height="57" as="geometry" />
        </mxCell>
        <mxCell id="6WRLJWK2D22IKGkuJ0T7-36" value="" style="sketch=0;pointerEvents=1;shadow=0;dashed=0;html=1;strokeColor=none;fillColor=#505050;labelPosition=center;verticalLabelPosition=bottom;verticalAlign=top;outlineConnect=0;align=center;shape=mxgraph.office.devices.router;" vertex="1" parent="1">
          <mxGeometry x="610" y="315" width="55" height="56" as="geometry" />
        </mxCell>
        <mxCell id="6WRLJWK2D22IKGkuJ0T7-37" value="" style="sketch=0;pointerEvents=1;shadow=0;dashed=0;html=1;strokeColor=none;fillColor=#505050;labelPosition=center;verticalLabelPosition=bottom;verticalAlign=top;outlineConnect=0;align=center;shape=mxgraph.office.devices.lcd_monitor;" vertex="1" parent="1">
          <mxGeometry x="260" y="177" width="58" height="48" as="geometry" />
        </mxCell>
        <mxCell id="6WRLJWK2D22IKGkuJ0T7-38" value="" style="sketch=0;pointerEvents=1;shadow=0;dashed=0;html=1;strokeColor=none;fillColor=#505050;labelPosition=center;verticalLabelPosition=bottom;verticalAlign=top;outlineConnect=0;align=center;shape=mxgraph.office.devices.lcd_monitor;" vertex="1" parent="1">
          <mxGeometry x="356" y="175" width="58" height="48" as="geometry" />
        </mxCell>
        <mxCell id="6WRLJWK2D22IKGkuJ0T7-39" value="" style="endArrow=none;dashed=1;html=1;dashPattern=1 3;strokeWidth=2;rounded=0;entryX=0.8;entryY=0.389;entryDx=0;entryDy=0;entryPerimeter=0;" edge="1" parent="1">
          <mxGeometry width="50" height="50" relative="1" as="geometry">
            <mxPoint x="198" y="341.50000000000006" as="sourcePoint" />
            <mxPoint x="568" y="341.7" as="targetPoint" />
          </mxGeometry>
        </mxCell>
        <mxCell id="6WRLJWK2D22IKGkuJ0T7-40" value="ПК директора и администратора" style="text;html=1;align=center;verticalAlign=middle;whiteSpace=wrap;rounded=0;" vertex="1" parent="1">
          <mxGeometry x="280" y="110" width="142" height="30" as="geometry" />
        </mxCell>
        <mxCell id="6WRLJWK2D22IKGkuJ0T7-41" value="" style="endArrow=classic;html=1;rounded=0;" edge="1" parent="1" target="6WRLJWK2D22IKGkuJ0T7-37">
          <mxGeometry width="50" height="50" relative="1" as="geometry">
            <mxPoint x="330" y="150" as="sourcePoint" />
            <mxPoint x="380" y="100" as="targetPoint" />
          </mxGeometry>
        </mxCell>
        <mxCell id="6WRLJWK2D22IKGkuJ0T7-42" value="" style="endArrow=classic;html=1;rounded=0;" edge="1" parent="1" target="6WRLJWK2D22IKGkuJ0T7-38">
          <mxGeometry width="50" height="50" relative="1" as="geometry">
            <mxPoint x="360" y="150" as="sourcePoint" />
            <mxPoint x="410" y="100" as="targetPoint" />
          </mxGeometry>
        </mxCell>
        <mxCell id="6WRLJWK2D22IKGkuJ0T7-44" value="Сервер СУБД" style="text;html=1;align=center;verticalAlign=middle;whiteSpace=wrap;rounded=0;" vertex="1" parent="1">
          <mxGeometry x="480.5" y="110" width="80" height="30" as="geometry" />
        </mxCell>
        <mxCell id="6WRLJWK2D22IKGkuJ0T7-45" value="" style="endArrow=classic;html=1;rounded=0;exitX=0.361;exitY=1.04;exitDx=0;exitDy=0;exitPerimeter=0;" edge="1" parent="1" source="6WRLJWK2D22IKGkuJ0T7-44" target="6WRLJWK2D22IKGkuJ0T7-34">
          <mxGeometry width="50" height="50" relative="1" as="geometry">
            <mxPoint x="330" y="300" as="sourcePoint" />
            <mxPoint x="380" y="250" as="targetPoint" />
          </mxGeometry>
        </mxCell>
        <mxCell id="6WRLJWK2D22IKGkuJ0T7-48" value="&lt;h1&gt;&lt;span style=&quot;font-weight: normal;&quot;&gt;&lt;font style=&quot;font-size: 14px;&quot;&gt;веб-сервер&lt;/font&gt;&lt;/span&gt;&lt;/h1&gt;" style="text;html=1;spacing=5;spacingTop=-20;whiteSpace=wrap;overflow=hidden;rounded=0;" vertex="1" parent="1">
          <mxGeometry x="580" y="100" width="100" height="40" as="geometry" />
        </mxCell>
        <mxCell id="6WRLJWK2D22IKGkuJ0T7-49" value="" style="endArrow=classic;html=1;rounded=0;exitX=0.182;exitY=0.95;exitDx=0;exitDy=0;exitPerimeter=0;" edge="1" parent="1" source="6WRLJWK2D22IKGkuJ0T7-48" target="6WRLJWK2D22IKGkuJ0T7-35">
          <mxGeometry width="50" height="50" relative="1" as="geometry">
            <mxPoint x="330" y="260" as="sourcePoint" />
            <mxPoint x="380" y="210" as="targetPoint" />
          </mxGeometry>
        </mxCell>
        <mxCell id="6WRLJWK2D22IKGkuJ0T7-50" value="" style="endArrow=classic;html=1;rounded=0;" edge="1" parent="1" target="6WRLJWK2D22IKGkuJ0T7-36">
          <mxGeometry width="50" height="50" relative="1" as="geometry">
            <mxPoint x="710" y="320" as="sourcePoint" />
            <mxPoint x="740" y="280" as="targetPoint" />
          </mxGeometry>
        </mxCell>
        <mxCell id="6WRLJWK2D22IKGkuJ0T7-51" value="маршрутизатор" style="text;html=1;align=center;verticalAlign=middle;whiteSpace=wrap;rounded=0;" vertex="1" parent="1">
          <mxGeometry x="710" y="287" width="60" height="30" as="geometry" />
        </mxCell>
        <mxCell id="6WRLJWK2D22IKGkuJ0T7-52" value="" style="endArrow=classic;html=1;rounded=0;" edge="1" parent="1">
          <mxGeometry width="50" height="50" relative="1" as="geometry">
            <mxPoint x="270" y="570" as="sourcePoint" />
            <mxPoint x="150" y="510" as="targetPoint" />
          </mxGeometry>
        </mxCell>
        <mxCell id="6WRLJWK2D22IKGkuJ0T7-53" value="" style="endArrow=classic;html=1;rounded=0;" edge="1" parent="1">
          <mxGeometry width="50" height="50" relative="1" as="geometry">
            <mxPoint x="290" y="560" as="sourcePoint" />
            <mxPoint x="236" y="508" as="targetPoint" />
          </mxGeometry>
        </mxCell>
        <mxCell id="6WRLJWK2D22IKGkuJ0T7-54" value="" style="endArrow=classic;html=1;rounded=0;" edge="1" parent="1">
          <mxGeometry width="50" height="50" relative="1" as="geometry">
            <mxPoint x="330" y="560" as="sourcePoint" />
            <mxPoint x="340" y="520" as="targetPoint" />
          </mxGeometry>
        </mxCell>
        <mxCell id="6WRLJWK2D22IKGkuJ0T7-55" value="" style="endArrow=classic;html=1;rounded=0;" edge="1" parent="1">
          <mxGeometry width="50" height="50" relative="1" as="geometry">
            <mxPoint x="390" y="560" as="sourcePoint" />
            <mxPoint x="440" y="510" as="targetPoint" />
          </mxGeometry>
        </mxCell>
        <mxCell id="6WRLJWK2D22IKGkuJ0T7-56" value="" style="endArrow=classic;html=1;rounded=0;" edge="1" parent="1">
          <mxGeometry width="50" height="50" relative="1" as="geometry">
            <mxPoint x="410" y="570" as="sourcePoint" />
            <mxPoint x="530" y="510" as="targetPoint" />
          </mxGeometry>
        </mxCell>
        <mxCell id="6WRLJWK2D22IKGkuJ0T7-57" value="ПК операторов" style="text;html=1;align=center;verticalAlign=middle;whiteSpace=wrap;rounded=0;" vertex="1" parent="1">
          <mxGeometry x="318" y="570" width="60" height="30" as="geometry" />
        </mxCell>
        <mxCell id="6WRLJWK2D22IKGkuJ0T7-59" value="" style="endArrow=classic;startArrow=classic;html=1;rounded=0;" edge="1" parent="1">
          <mxGeometry width="50" height="50" relative="1" as="geometry">
            <mxPoint x="163" y="449" as="sourcePoint" />
            <mxPoint x="218" y="449" as="targetPoint" />
          </mxGeometry>
        </mxCell>
        <mxCell id="6WRLJWK2D22IKGkuJ0T7-60" value="" style="endArrow=classic;startArrow=classic;html=1;rounded=0;" edge="1" parent="1">
          <mxGeometry width="50" height="50" relative="1" as="geometry">
            <mxPoint x="257" y="451" as="sourcePoint" />
            <mxPoint x="312" y="451" as="targetPoint" />
          </mxGeometry>
        </mxCell>
        <mxCell id="6WRLJWK2D22IKGkuJ0T7-61" value="&#xa;&lt;span style=&quot;color: rgba(0, 0, 0, 0); font-family: monospace; font-size: 0px; font-style: normal; font-variant-ligatures: normal; font-variant-caps: normal; font-weight: 400; letter-spacing: normal; orphans: 2; text-align: start; text-indent: 0px; text-transform: none; widows: 2; word-spacing: 0px; -webkit-text-stroke-width: 0px; white-space: nowrap; background-color: rgb(251, 251, 251); text-decoration-thickness: initial; text-decoration-style: initial; text-decoration-color: initial; display: inline !important; float: none;&quot;&gt;%3CmxGraphModel%3E%3Croot%3E%3CmxCell%20id%3D%220%22%2F%3E%3CmxCell%20id%3D%221%22%20parent%3D%220%22%2F%3E%3CmxCell%20id%3D%222%22%20value%3D%22%22%20style%3D%22endArrow%3Dclassic%3BstartArrow%3Dclassic%3Dclassic%3Dclassic%3Dclassic%3Bhtml%3D1%3Brounded%3D0%3B%22%20edge%3D%221%22%20parent%3D%221%22%3E%3CmxGeometry%20width%3D%2250%22%20height%3D%2250%22%20relative%3D%221%22%20as%3D%22geometry%22%3E%3CmxPoint%20x%3D%22360%22% 20y%3D%22453%22%20as%3D%22sourcePoint%22%2F%3E%3CmxPoint%20x%3D%22415%22%20y%3D%22453%22%20as%3D%22targetPoint%22%2F%3E%3C%2FmxGeometry%3E%3C%2FmxCell%3E%3C%2Froot%3E%3C%2FmxGraphModel%3E" style="endArrow=classic;startArrow=classic;html=1;rounded=0;" edge="1" parent="1">
          <mxGeometry width="50" height="50" relative="1" as="geometry">
            <mxPoint x="360" y="453" as="sourcePoint" />
            <mxPoint x="415" y="453" as="targetPoint" />
          </mxGeometry>
        </mxCell>
        <mxCell id="6WRLJWK2D22IKGkuJ0T7-62" value="" style="endArrow=classic;startArrow=classic;html=1;rounded=0;" edge="1" parent="1">
          <mxGeometry width="50" height="50" relative="1" as="geometry">
            <mxPoint x="461" y="452" as="sourcePoint" />
            <mxPoint x="516" y="452" as="targetPoint" />
          </mxGeometry>
        </mxCell>
        <mxCell id="6WRLJWK2D22IKGkuJ0T7-63" value="5 кв м" style="text;html=1;align=center;verticalAlign=middle;whiteSpace=wrap;rounded=0;" vertex="1" parent="1">
          <mxGeometry x="160" y="410" width="60" height="30" as="geometry" />
        </mxCell>
        <mxCell id="6WRLJWK2D22IKGkuJ0T7-64" value="5 кв м" style="text;html=1;align=center;verticalAlign=middle;whiteSpace=wrap;rounded=0;" vertex="1" parent="1">
          <mxGeometry x="250" y="410" width="60" height="30" as="geometry" />
        </mxCell>
        <mxCell id="6WRLJWK2D22IKGkuJ0T7-65" value="5 кв м" style="text;html=1;align=center;verticalAlign=middle;whiteSpace=wrap;rounded=0;" vertex="1" parent="1">
          <mxGeometry x="362" y="410" width="60" height="30" as="geometry" />
        </mxCell>
        <mxCell id="6WRLJWK2D22IKGkuJ0T7-66" value="5 кв м" style="text;html=1;align=center;verticalAlign=middle;whiteSpace=wrap;rounded=0;" vertex="1" parent="1">
          <mxGeometry x="457.5" y="410" width="60" height="30" as="geometry" />
        </mxCell>
        <mxCell id="6WRLJWK2D22IKGkuJ0T7-67" value="&#xa;&lt;span style=&quot;color: rgba(0, 0, 0, 0); font-family: monospace; font-size: 0px; font-style: normal; font-variant-ligatures: normal; font-variant-caps: normal; font-weight: 400; letter-spacing: normal; orphans: 2; text-align: start; text-indent: 0px; text-transform: none; widows: 2; word-spacing: 0px; -webkit-text-stroke-width: 0px; white-space: nowrap; background-color: rgb(251, 251, 251); text-decoration-thickness: initial; text-decoration-style: initial; text-decoration-color: initial; display: inline !important; float: none;&quot;&gt;%3CmxGraphModel%3E%3Croot%3E%3CmxCell%20id%3D%220%22%2F%3E%3CmxCell%20id%3D%221%22%20parent%3D%220%22%2F%3E%3CmxCell%20id%3D%222%22%20value%3D%22%22%20style%3D%22endArrow%3Dclassic%3BstartArrow%3Dclassic%3Dclassic%3Dclassic%3Dclassic%3Bhtml%3D1%3Brounded%3D0%3B%22%20edge%3D%221%22%20parent%3D%221%22%3E%3CmxGeometry%20width%3D%2250%22%20height%3D%2250%22%20relative%3D%221%22%20as%3D%22geometry%22%3E%3CmxPoint%20x%3D%22360%22% 20y%3D%22453%22%20as%3D%22sourcePoint%22%2F%3E%3CmxPoint%20x%3D%22415%22%20y%3D%22453%22%20as%3D%22targetPoint%22%2F%3E%3C%2FmxGeometry%3E%3C%2FmxCell%3E%3C%2Froot%3E%3C%2FmxGraphModel%3E" style="endArrow=classic;startArrow=classic;html=1;rounded=0;" edge="1" parent="1">
          <mxGeometry width="50" height="50" relative="1" as="geometry">
            <mxPoint x="307" y="234.5" as="sourcePoint" />
            <mxPoint x="362" y="234.5" as="targetPoint" />
          </mxGeometry>
        </mxCell>
        <mxCell id="6WRLJWK2D22IKGkuJ0T7-68" value="5 кв м" style="text;html=1;align=center;verticalAlign=middle;whiteSpace=wrap;rounded=0;" vertex="1" parent="1">
          <mxGeometry x="309" y="257" width="60" height="30" as="geometry" />
        </mxCell>
      </root>
    </mxGraphModel>
  </diagram>
</mxfile>
